<?xml version="1.0" standalone="no"?>
<!DOCTYPE svg PUBLIC "-//W3C//DTD SVG 20010904//EN"
 "http://www.w3.org/TR/2001/REC-SVG-20010904/DTD/svg10.dtd">
<svg version="1.0" xmlns="http://www.w3.org/2000/svg"
 width="383.000000pt" height="360.000000pt" viewBox="0 0 383.000000 360.000000"
 preserveAspectRatio="xMidYMid meet">

<g transform="translate(0.000000,360.000000) scale(0.100000,-0.100000)"
fill="#000000" stroke="none">
<path d="M1868 2468 c-51 -41 -658 -724 -683 -769 -27 -49 -30 -63 -30 -144 0
-77 4 -98 27 -147 14 -31 36 -61 47 -68 12 -6 164 -51 339 -100 519 -145 473
-134 513 -117 27 11 100 91 299 328 144 173 269 328 276 346 19 45 18 172 -2
201 -15 22 -49 29 -70 14 -23 -15 -34 -53 -34 -117 0 -36 -5 -76 -12 -88 -6
-12 -114 -142 -240 -289 -193 -225 -235 -269 -266 -279 -34 -10 -65 -3 -357
81 -200 58 -328 100 -341 112 -28 25 -48 98 -40 142 9 46 56 96 91 96 15 0
154 -36 309 -81 154 -44 296 -81 315 -81 18 0 45 9 60 19 14 11 158 171 319
357 290 334 304 354 286 400 -7 19 -30 26 -263 77 l-194 43 -46 -54 c-25 -30
-61 -70 -79 -90 l-32 -35 -33 37 c-29 34 -37 37 -91 40 -33 2 -61 8 -63 14 -2
6 21 43 51 82 44 55 52 71 40 76 -27 10 -79 7 -96 -6z"/>
<path d="M1956 2398 l-58 -73 61 -5 c54 -4 64 -9 80 -33 l19 -29 61 73 c34 40
60 78 58 83 -3 9 -136 56 -158 56 -3 0 -32 -33 -63 -72z"/>
</g>
</svg>
